# xmcd
#
# Track frame offsets:
# 150
# 2409
# 16565
# 17563
# 34975
# 35785
# 51383
# 52404
# 66850
# 68103
# 82785
# 83515
# 100694
# 101544
# 114602
# 127877
# 137881
# 152735
# 169399
# 180237
# 198487
# 210859
# 227212
# 239651
# 256154
# 270550
# 284681
# 301276
# 317972
# 333750
#
# Disc length: 4642 seconds
#
#
# Revision: 0
# Processed by: cddbd v1.5.2PL0 Copyright (c) Steve Scherf et al.
# Submitted via: FreeRIP 2.944 
#
DISCID=9912201e
DTITLE=Cavalo de Fogo Coutry - 23 Sucessos
DYEAR=2008
DGENRE=Country
TTITLE0=LOCUCAO
TTITLE1=COTTON - Eye Joe - Rendnex
TTITLE2=LOCUCAO
TTITLE3=MAN! I FEEL LIKE A WOMAN - SHANIA TWAIN
TTITLE4=LOCUCAO
TTITLE5=GHOST RIDERS IN THE SKY - Johnny Cash
TTITLE6=LOCUCAO
TTITLE7=QUEEN OF HEARTS - Juice Newton
TTITLE8=LOCUCAO
TTITLE9=IF YOU CAN'T GIVE ME LOVE - Cindy Ray
TTITLE10=LOCUCAO
TTITLE11=LOSING MY RELIGION - Mick One
TTITLE12=LOCUCAO
TTITLE13=MRS. ROBINSON - Jack James
TTITLE14=I DROVE ALL NIGHT - Cindy Ray
TTITLE15=JAMBALAYA - Larry Lowman
TTITLE16=KARMA KAMALEON
TTITLE17=WONDERWALL - Clair Jones
TTITLE18=CALLING BATON ROUGE - Coutry Connection
TTITLE19=WHO'S BED HAVE YOUR BOOTS BENN UNDER - Samantha Blue
TTITLE20=PLEASE DON'T GO - RALPH JONES
TTITLE21=WHO THE FUCK IS ALICE - Al Mighty
TTITLE22=YOU SHOOK ME ALL NITE LONG - Sam James
TTITLE23=I' LL TRY - Alan Jackson
TTITLE24=REDNECK GIRL - The Bellamy Brothers
TTITLE25=SHE DID IT TO ME
TTITLE26=SUDS IN THE BUCKET - Sara Evans
TTITLE27=MY OH MY
TTITLE28=STAND BY ME - Mickey Gilley
TTITLE29=LOVE SOMEONE LIKE ME - Hollyn Dunn
EXTD=
EXTT0=
EXTT1=
EXTT2=
EXTT3=
EXTT4=
EXTT5=
EXTT6=
EXTT7=
EXTT8=
EXTT9=
EXTT10=
EXTT11=
EXTT12=
EXTT13=
EXTT14=
EXTT15=
EXTT16=
EXTT17=
EXTT18=
EXTT19=
EXTT20=
EXTT21=
EXTT22=
EXTT23=
EXTT24=
EXTT25=
EXTT26=
EXTT27=
EXTT28=
EXTT29=
PLAYORDER=
